<svg width="151" height="37" viewBox="0 0 151 37" fill="none" xmlns="http://www.w3.org/2000/svg">
<path fill-rule="evenodd" clip-rule="evenodd" d="M21.8767 0.500013L0.876709 36H14.3767L20.3767 25.0625H29.8767L33.3767 36H48.3767L36.3767 0.500013H21.8767ZM25.8767 6.00001H29.8767L32.5356 17.0417H20.3767L25.8767 6.00001Z" fill="#72A8DB" stroke="black"/>
<path d="M39.3767 36L42.8767 0.500013H50.8767L47.9551 22.875H49.8767L55.21 6.10418H61.8767L63.1904 22.875H64.8767L73.3767 0.500013H82.3767L70.8767 36H59.3767L58.3767 16.3125H56.661L50.8571 36H39.3767Z" fill="#72A8DB" stroke="black"/>
<path d="M89.4656 0.507826C92.9895 1.1452 96.4446 2.39124 99.0173 4.97951C101.602 7.57959 103.234 11.4705 103.234 17.2647C103.234 24.108 101.916 28.5744 99.6199 31.5117C97.3159 34.4587 94.0907 35.7856 90.4724 36.4912L90.4246 36.5H74.3396L74.3777 35.9649L76.9109 0.500013H89.4216L89.4656 0.507826ZM83.3982 7.00001L83.3767 7.47853L82.3767 30.4785L82.3542 31H85.3992L85.4216 30.9981H85.4255C85.4274 30.9979 85.4303 30.9974 85.4333 30.9971C85.4396 30.9965 85.4487 30.9953 85.4597 30.9942C85.4816 30.9918 85.5129 30.9885 85.5525 30.9834C85.6321 30.9732 85.7465 30.9571 85.8904 30.9326C86.1781 30.8837 86.5852 30.8012 87.072 30.667C88.0443 30.3991 89.3447 29.9213 90.6482 29.0801C93.2783 27.3826 95.8767 24.2305 95.8767 18.5C95.8767 12.803 93.6806 9.88447 91.3962 8.41896C90.2699 7.69648 89.1466 7.34251 88.3064 7.16896C87.8855 7.08204 87.5327 7.04008 87.283 7.01954C87.158 7.00927 87.058 7.00424 86.988 7.00197C86.9532 7.00084 86.9256 7.00021 86.906 7.00001H83.3982Z" fill="#72A8DB"/>
<path d="M89.4656 0.507826L89.5546 0.0158069L89.5531 0.0155446L89.4656 0.507826ZM99.0173 4.97951L99.372 4.62702L99.3719 4.62701L99.0173 4.97951ZM103.234 17.2647L103.734 17.2647L103.734 17.2647L103.234 17.2647ZM99.6199 31.5117L100.014 31.8197L100.014 31.8197L99.6199 31.5117ZM90.4724 36.4912L90.5627 36.983L90.5681 36.982L90.4724 36.4912ZM90.4246 36.5V37H90.4701L90.5149 36.9918L90.4246 36.5ZM74.3396 36.5L73.8409 36.4645L73.8028 37H74.3396V36.5ZM74.3777 35.9649L73.879 35.9292L73.8789 35.9294L74.3777 35.9649ZM76.9109 0.500013V1.33514e-05H76.4453L76.4122 0.46439L76.9109 0.500013ZM89.4216 0.500013L89.5091 0.0077321L89.4657 1.33514e-05H89.4216V0.500013ZM83.3982 7.00001V6.50001H82.9201L82.8987 6.97759L83.3982 7.00001ZM83.3767 7.47853L82.8772 7.4561L82.8772 7.45681L83.3767 7.47853ZM82.3767 30.4785L81.8772 30.4568L81.8772 30.457L82.3767 30.4785ZM82.3542 31L81.8547 30.9785L81.8322 31.5H82.3542V31ZM85.3992 31V31.5H85.4209L85.4425 31.4981L85.3992 31ZM85.4216 30.9981V30.4981H85.3999L85.3783 30.4999L85.4216 30.9981ZM85.4255 30.9981V31.4981H85.4493L85.473 31.4958L85.4255 30.9981ZM85.4333 30.9971L85.4828 31.4946L85.4829 31.4946L85.4333 30.9971ZM85.4597 30.9942L85.5137 31.4912L85.5137 31.4912L85.4597 30.9942ZM85.5525 30.9834L85.6158 31.4794L85.6158 31.4794L85.5525 30.9834ZM85.8904 30.9326L85.9741 31.4256L85.9741 31.4256L85.8904 30.9326ZM87.072 30.667L87.2049 31.149L87.2049 31.149L87.072 30.667ZM90.6482 29.0801L90.9193 29.5002L90.9193 29.5002L90.6482 29.0801ZM95.8767 18.5L96.3767 18.5L96.3767 18.5L95.8767 18.5ZM91.3962 8.41896L91.6662 7.99812L91.6662 7.9981L91.3962 8.41896ZM88.3064 7.16896L88.4075 6.6793L88.4075 6.67929L88.3064 7.16896ZM87.283 7.01954L87.3239 6.52123L87.3239 6.52123L87.283 7.01954ZM86.988 7.00197L87.0043 6.50223L87.0042 6.50223L86.988 7.00197ZM86.906 7.00001L86.911 6.50001H86.906V7.00001ZM89.4656 0.507826L89.3766 0.999843C92.8528 1.62859 96.1925 2.84695 98.6627 5.332L99.0173 4.97951L99.3719 4.62701C96.6966 1.93553 93.1262 0.661814 89.5546 0.0158091L89.4656 0.507826ZM99.0173 4.97951L98.6627 5.33199C101.133 7.817 102.734 11.569 102.734 17.2647L103.234 17.2647L103.734 17.2647C103.734 11.372 102.071 7.34219 99.372 4.62702L99.0173 4.97951ZM103.234 17.2647H102.734C102.734 24.0542 101.425 28.391 99.226 31.2038L99.6199 31.5117L100.014 31.8197C102.408 28.7577 103.734 24.1618 103.734 17.2647H103.234ZM99.6199 31.5117L99.226 31.2038C97.0269 34.0165 93.9374 35.3061 90.3767 36.0005L90.4724 36.4912L90.5681 36.982C94.244 36.2651 97.6049 34.9008 100.014 31.8197L99.6199 31.5117ZM90.4724 36.4912L90.3821 35.9995L90.3342 36.0082L90.4246 36.5L90.5149 36.9918L90.5627 36.983L90.4724 36.4912ZM90.4246 36.5V36H74.3396V36.5V37H90.4246V36.5ZM74.3396 36.5L74.8383 36.5355L74.8764 36.0004L74.3777 35.9649L73.8789 35.9294L73.8409 36.4645L74.3396 36.5ZM74.3777 35.9649L74.8764 36.0005L77.4096 0.535637L76.9109 0.500013L76.4122 0.46439L73.879 35.9292L74.3777 35.9649ZM76.9109 0.500013V1.00001H89.4216V0.500013V1.33514e-05H76.9109V0.500013ZM89.4216 0.500013L89.3341 0.992295L89.3781 1.00011L89.4656 0.507826L89.5531 0.0155446L89.5091 0.0077321L89.4216 0.500013ZM83.3982 7.00001L82.8987 6.97759L82.8772 7.4561L83.3767 7.47853L83.8762 7.50096L83.8977 7.02244L83.3982 7.00001ZM83.3767 7.47853L82.8772 7.45681L81.8772 30.4568L82.3767 30.4785L82.8762 30.5002L83.8762 7.50025L83.3767 7.47853ZM82.3767 30.4785L81.8772 30.457L81.8547 30.9785L82.3542 31L82.8538 31.0215L82.8762 30.5L82.3767 30.4785ZM82.3542 31V31.5H85.3992V31V30.5H82.3542V31ZM85.3992 31L85.4425 31.4981L85.4649 31.4962L85.4216 30.9981L85.3783 30.4999L85.3559 30.5019L85.3992 31ZM85.4216 30.9981V31.4981H85.4255V30.9981V30.4981H85.4216V30.9981ZM85.4255 30.9981L85.473 31.4958C85.4778 31.4953 85.4819 31.4949 85.4849 31.4945C85.4879 31.4942 85.4904 31.4939 85.4921 31.4936C85.4938 31.4934 85.4952 31.4932 85.4959 31.4931C85.4963 31.4931 85.4967 31.493 85.4969 31.493C85.4971 31.493 85.4972 31.493 85.4972 31.4929C85.4975 31.4929 85.4959 31.4931 85.4936 31.4934C85.4912 31.4937 85.4875 31.4942 85.4828 31.4946L85.4333 30.9971L85.3839 30.4995C85.3777 30.5002 85.3724 30.5008 85.3686 30.5013C85.3649 30.5017 85.3618 30.5021 85.3608 30.5023C85.3605 30.5023 85.3602 30.5024 85.3602 30.5024C85.36 30.5024 85.36 30.5024 85.3601 30.5024C85.3602 30.5024 85.3611 30.5023 85.3622 30.5021C85.3633 30.502 85.3652 30.5017 85.3677 30.5014C85.3701 30.5011 85.3737 30.5007 85.3781 30.5003L85.4255 30.9981ZM85.4333 30.9971L85.4829 31.4946C85.4902 31.4939 85.4977 31.493 85.5014 31.4926C85.5063 31.4921 85.5098 31.4917 85.5137 31.4912L85.4597 30.9942L85.4058 30.4971C85.3986 30.4978 85.3921 30.4986 85.3882 30.499C85.386 30.4993 85.3846 30.4994 85.3837 30.4996C85.3827 30.4997 85.3829 30.4996 85.3838 30.4995L85.4333 30.9971ZM85.4597 30.9942L85.5137 31.4912C85.5347 31.4889 85.5707 31.4851 85.6158 31.4794L85.5525 30.9834L85.4892 30.4874C85.455 30.4918 85.4285 30.4946 85.4057 30.4971L85.4597 30.9942ZM85.5525 30.9834L85.6158 31.4794C85.7018 31.4684 85.8231 31.4512 85.9741 31.4256L85.8904 30.9326L85.8066 30.4397C85.67 30.4629 85.5624 30.4781 85.4892 30.4874L85.5525 30.9834ZM85.8904 30.9326L85.9741 31.4256C86.2765 31.3742 86.7 31.2881 87.2049 31.149L87.072 30.667L86.9392 30.185C86.4703 30.3142 86.0797 30.3933 85.8066 30.4397L85.8904 30.9326ZM87.072 30.667L87.2049 31.149C88.2119 30.8715 89.5623 30.3759 90.9193 29.5002L90.6482 29.0801L90.3771 28.66C89.1271 29.4666 87.8767 29.9266 86.9392 30.185L87.072 30.667ZM90.6482 29.0801L90.9193 29.5002C93.6797 27.7187 96.3767 24.4147 96.3767 18.5L95.8767 18.5L95.3767 18.5C95.3767 24.0464 92.877 27.0466 90.3771 28.66L90.6482 29.0801ZM95.8767 18.5L96.3767 18.5C96.3767 12.6527 94.11 9.5659 91.6662 7.99812L91.3962 8.41896L91.1263 8.8398C93.2512 10.2031 95.3767 12.9533 95.3767 18.5L95.8767 18.5ZM91.3962 8.41896L91.6662 7.9981C90.4759 7.23456 89.2914 6.86186 88.4075 6.6793L88.3064 7.16896L88.2053 7.65862C89.0019 7.82317 90.064 8.1584 91.1263 8.83981L91.3962 8.41896ZM88.3064 7.16896L88.4075 6.67929C87.9638 6.58767 87.5907 6.54316 87.3239 6.52123L87.283 7.01954L87.242 7.51786C87.4748 7.537 87.8072 7.57642 88.2053 7.65863L88.3064 7.16896ZM87.283 7.01954L87.3239 6.52123C87.1907 6.51027 87.0824 6.50477 87.0043 6.50223L86.988 7.00197L86.9718 7.5017C87.0335 7.50371 87.1253 7.50827 87.242 7.51786L87.283 7.01954ZM86.988 7.00197L87.0042 6.50223C86.9674 6.50103 86.9358 6.50029 86.911 6.50004L86.906 7.00001L86.901 7.49999C86.9155 7.50013 86.9391 7.50064 86.9718 7.5017L86.988 7.00197ZM86.906 7.00001V6.50001H83.3982V7.00001V7.50001H86.906V7.00001Z" fill="black"/>
<path d="M98.8767 36L103.877 0.500013H131.691L125.877 7.00001H110.877L111.877 14.8542H119.329V21.4167H110.877L111.877 29.5H132.377L137.795 36H98.8767Z" fill="#72A8DB" stroke="black"/>
<mask id="path-6-inside-1_6_2" fill="white">
<path d="M129.141 0.615093C136.518 -1.96994 145.482 3.82985 149.164 13.5692C152.845 23.3086 149.85 33.2995 142.473 35.8846C135.097 38.4697 126.132 32.6699 122.451 22.9305C118.769 13.1912 121.765 3.20017 129.141 0.615093ZM143.026 15.2137C141.017 9.89803 136.124 6.73248 132.098 8.14341C128.072 9.55439 126.438 15.0074 128.447 20.3231C130.456 25.6385 135.349 28.804 139.375 27.3934C143.401 25.9825 145.035 20.5293 143.026 15.2137Z"/>
</mask>
<path d="M129.141 0.615093C136.518 -1.96994 145.482 3.82985 149.164 13.5692C152.845 23.3086 149.85 33.2995 142.473 35.8846C135.097 38.4697 126.132 32.6699 122.451 22.9305C118.769 13.1912 121.765 3.20017 129.141 0.615093ZM143.026 15.2137C141.017 9.89803 136.124 6.73248 132.098 8.14341C128.072 9.55439 126.438 15.0074 128.447 20.3231C130.456 25.6385 135.349 28.804 139.375 27.3934C143.401 25.9825 145.035 20.5293 143.026 15.2137Z" fill="#72A8DB"/>
<path d="M129.141 0.615093L128.811 -0.328634L128.811 -0.328631L129.141 0.615093ZM149.164 13.5692L150.099 13.2156L150.099 13.2156L149.164 13.5692ZM142.473 35.8846L142.804 36.8283L142.804 36.8283L142.473 35.8846ZM122.451 22.9305L121.515 23.2841L121.515 23.2841L122.451 22.9305ZM143.026 15.2137L143.961 14.8602L143.961 14.8601L143.026 15.2137ZM132.098 8.14341L131.768 7.19969L131.768 7.19969L132.098 8.14341ZM128.447 20.3231L127.511 20.6767L127.512 20.6767L128.447 20.3231ZM139.375 27.3934L139.705 28.3372L139.705 28.3371L139.375 27.3934ZM129.141 0.615093L129.472 1.55882C132.8 0.392498 136.563 1.09009 139.995 3.3101C143.425 5.52908 146.457 9.23623 148.228 13.9228L149.164 13.5692L150.099 13.2156C148.189 8.16282 144.898 4.1004 141.081 1.6309C137.266 -0.837553 132.859 -1.74734 128.811 -0.328634L129.141 0.615093ZM149.164 13.5692L148.228 13.9228C150 18.6097 150.148 23.3166 149.007 27.1226C147.867 30.9258 145.465 33.7767 142.143 34.9409L142.473 35.8846L142.804 36.8283C146.858 35.4075 149.642 31.9704 150.923 27.697C152.203 23.4264 152.009 18.2681 150.099 13.2156L149.164 13.5692ZM142.473 35.8846L142.143 34.9409C138.814 36.1073 135.051 35.4097 131.62 33.1897C128.19 30.9707 125.158 27.2635 123.386 22.5769L122.451 22.9305L121.515 23.2841C123.425 28.3369 126.716 32.3994 130.533 34.8689C134.349 37.3373 138.756 38.2471 142.804 36.8283L142.473 35.8846ZM122.451 22.9305L123.386 22.5769C121.615 17.8901 121.466 13.1832 122.607 9.37715C123.748 5.57395 126.15 2.72301 129.472 1.55882L129.141 0.615093L128.811 -0.328631C124.756 1.09225 121.973 4.52937 120.692 8.80279C119.411 13.0734 119.606 18.2317 121.515 23.2841L122.451 22.9305ZM143.026 15.2137L143.961 14.8601C142.888 12.0192 141.033 9.72125 138.862 8.3165C136.692 6.91278 134.141 6.36803 131.768 7.19969L132.098 8.14341L132.429 9.08714C134.082 8.50787 135.99 8.84042 137.775 9.99567C139.559 11.1499 141.155 13.0926 142.091 15.5673L143.026 15.2137ZM132.098 8.14341L131.768 7.19969C129.388 8.03353 127.783 10.0426 127.051 12.4818C126.321 14.9182 126.438 17.8361 127.511 20.6767L128.447 20.3231L129.382 19.9695C128.447 17.4944 128.376 15.028 128.967 13.0562C129.558 11.0872 130.782 9.66427 132.429 9.08713L132.098 8.14341ZM128.447 20.3231L127.512 20.6767C128.585 23.5175 130.44 25.8154 132.611 27.2201C134.781 28.6238 137.332 29.1686 139.705 28.3372L139.375 27.3934L139.044 26.4497C137.391 27.0288 135.483 26.6962 133.698 25.5409C131.914 24.3867 130.318 22.4441 129.382 19.9695L128.447 20.3231ZM139.375 27.3934L139.705 28.3371C142.085 27.5033 143.69 25.4942 144.421 23.055C145.152 20.6186 145.035 17.7007 143.961 14.8602L143.026 15.2137L142.091 15.5673C143.026 18.0424 143.097 20.5088 142.506 22.4807C141.915 24.4497 140.691 25.8726 139.044 26.4497L139.375 27.3934Z" fill="black" mask="url(#path-6-inside-1_6_2)"/>
</svg>
