<svg width="122" height="129" viewBox="0 0 122 129" fill="none" xmlns="http://www.w3.org/2000/svg">
<path d="M133.03 -77.2172L133.281 -77.0708C123.21 -61.9821 111.154 -41.7889 110.136 -21.4856C109.628 -11.3433 111.875 -1.1771 118.503 8.39739C125.132 17.9743 136.157 26.9804 153.24 34.7764C196.711 54.6145 231.529 46.5426 257.506 42.6078C270.474 40.6437 281.317 39.6944 289.887 43.8754C298.481 48.0678 304.704 57.3668 308.595 75.6564L308.304 75.707L308.015 75.7576C304.134 57.5167 297.964 48.4345 289.618 44.3625C281.248 40.2796 270.601 41.182 257.606 43.1504C231.657 47.0807 196.65 55.1966 152.984 35.269C135.83 27.4407 124.708 18.3756 118.006 8.69272C111.302 -0.992583 109.031 -11.2766 109.544 -21.5164C110.57 -41.9771 122.71 -62.2796 132.779 -77.365L133.03 -77.2172ZM157.822 -188.735L158.073 -188.589C148.002 -173.5 135.946 -153.307 134.928 -133.004C134.635 -127.157 135.26 -121.303 137.109 -115.559C138.229 -135.926 150.304 -156.114 160.328 -171.132L160.578 -170.985L160.831 -170.838C150.759 -155.749 138.702 -135.556 137.685 -115.252C137.664 -114.837 137.649 -114.423 137.638 -114.008C138.309 -112.156 139.11 -110.316 140.054 -108.493C143.722 -125.317 153.511 -141.439 161.872 -153.966L162.123 -153.819L162.375 -153.671C153.894 -140.966 144.006 -124.641 140.487 -107.679C141.319 -106.147 142.252 -104.626 143.295 -103.121C143.306 -103.104 143.318 -103.087 143.33 -103.07C148.006 -115.855 155.402 -127.826 161.929 -137.605L162.18 -137.458L162.432 -137.312C155.834 -127.426 148.383 -115.349 143.743 -102.486C144.574 -101.323 145.472 -100.169 146.437 -99.0245C150.629 -107.554 155.626 -115.484 160.2 -122.335L160.45 -122.188L160.702 -122.041C156.083 -115.12 151.048 -107.124 146.85 -98.5377C147.465 -97.8254 148.107 -97.1175 148.776 -96.4133C151.319 -100.703 153.935 -104.75 156.423 -108.478L156.674 -108.331L156.926 -108.186C154.405 -104.409 151.759 -100.313 149.194 -95.9758C149.402 -95.7602 149.615 -95.5457 149.829 -95.331C150.049 -95.6634 150.268 -95.9936 150.487 -96.3212L150.738 -96.1734L150.99 -96.0275C150.744 -95.6595 150.497 -95.2881 150.25 -94.914C156.863 -88.4011 165.926 -82.2667 178.032 -76.7417C221.503 -56.9035 256.321 -64.9761 282.299 -68.9109C295.266 -70.875 306.109 -71.8236 314.679 -67.6427C323.273 -63.4502 329.496 -54.1512 333.387 -35.8617L333.096 -35.8111L332.807 -35.7604C328.926 -54.0014 322.756 -63.0836 314.41 -67.1556C306.04 -71.2384 295.393 -70.3361 282.398 -68.3677C256.449 -64.4373 221.442 -56.3215 177.776 -76.2491C165.684 -81.7673 156.591 -87.9016 149.929 -94.4321C148.333 -92.0138 146.699 -89.4739 145.078 -86.8328C145.392 -86.344 145.715 -85.8551 146.051 -85.3692C152.68 -75.7925 163.705 -66.7868 180.788 -58.9909C224.258 -39.1528 259.077 -47.2253 285.055 -51.1601C298.022 -53.1242 308.866 -54.073 317.437 -49.8918C326.03 -45.6994 332.252 -36.4004 336.143 -18.1109L335.853 -18.061L335.563 -18.0097C331.682 -36.2504 325.513 -45.3328 317.167 -49.4047C308.797 -53.4877 298.15 -52.5852 285.155 -50.6169C259.206 -46.6865 224.199 -38.5699 180.532 -58.4976C163.378 -66.3259 152.258 -75.3916 145.555 -85.0745C145.276 -85.4771 145.007 -85.8815 144.743 -86.2862C143.621 -84.4461 142.504 -82.5583 141.413 -80.6281C142.772 -76.4118 144.792 -72.2543 147.596 -68.2032C154.225 -58.6265 165.25 -49.6209 182.333 -41.825C225.803 -21.9867 260.622 -30.0594 286.6 -33.9942C299.567 -35.9582 310.41 -36.9062 318.981 -32.7252C327.574 -28.5328 333.797 -19.2343 337.687 -0.94496L337.397 -0.894383L337.107 -0.843715C333.227 -19.0844 327.057 -28.1662 318.711 -32.2381C310.341 -36.3211 299.694 -35.4187 286.699 -33.4503C260.75 -29.5199 225.743 -21.404 182.077 -41.3316C164.923 -49.16 153.802 -58.225 147.099 -67.9079C144.383 -71.8316 142.394 -75.8535 141.024 -79.9309C140.786 -79.506 140.549 -79.0796 140.314 -78.6508C139.964 -77.8243 139.624 -76.9934 139.295 -76.1589C139.748 -67.8825 142.238 -59.6653 147.652 -51.8431C154.281 -42.2662 165.307 -33.2601 182.39 -25.4641C225.86 -5.62589 260.679 -13.6985 286.657 -17.6333C299.624 -19.5974 310.468 -20.5462 319.039 -16.365C327.632 -12.1725 333.854 -2.8735 337.745 15.4159L337.454 15.4658L337.164 15.5171C333.284 -2.72349 327.115 -11.8058 318.769 -15.8779C310.399 -19.9609 299.752 -19.0584 286.757 -17.09C260.808 -13.1597 225.8 -5.04306 182.134 -24.9708C164.98 -32.7991 153.859 -41.8647 147.157 -51.5477C141.959 -59.0567 139.427 -66.9253 138.79 -74.8544C138.65 -74.4849 138.513 -74.1144 138.377 -73.7436C137.96 -71.3216 137.679 -68.8896 137.557 -66.4558C137.048 -56.3135 139.296 -46.1473 145.923 -36.5728C152.552 -26.9959 163.578 -17.9898 180.661 -10.1938C224.131 9.64431 258.95 1.57179 284.928 -2.363C297.895 -4.32705 308.737 -5.27575 317.308 -1.09476C325.902 3.09768 332.125 12.3967 336.015 30.6862L335.724 30.7361L335.435 30.7867C331.554 12.5461 325.384 3.46426 317.038 -0.607651C308.669 -4.6906 298.022 -3.78819 285.026 -1.81979C259.078 2.11058 224.07 10.2265 180.404 -9.70115C163.25 -17.5295 152.129 -26.5945 145.426 -36.2774C138.722 -45.9628 136.452 -56.2468 136.965 -66.4865C137.036 -67.9064 137.162 -69.3255 137.336 -70.7422C135.389 -64.7951 134.086 -58.7024 133.78 -52.5998C133.272 -42.4575 135.519 -32.2913 142.146 -22.7168C148.775 -13.1399 159.801 -4.13385 176.884 3.66218C220.355 23.5005 255.174 15.4271 281.152 11.4923C294.119 9.5283 304.962 8.58015 313.532 12.7613C322.126 16.9538 328.348 26.2529 332.238 44.5422L331.948 44.5921L331.658 44.6434C327.778 26.4025 321.608 17.3196 313.262 13.2477C304.893 9.16486 294.246 10.0679 281.251 12.0363C255.302 15.9666 220.294 24.0832 176.628 4.15553C159.474 -3.6728 148.353 -12.7385 141.651 -22.4214C134.947 -32.1068 132.676 -42.3906 133.189 -52.6305C133.548 -59.7877 135.267 -66.9255 137.781 -73.8275C132.513 -63.3332 128.418 -51.9051 127.844 -40.4418C127.336 -30.2995 129.583 -20.1333 136.21 -10.5588C142.84 -0.981903 153.865 8.02423 170.948 15.8202C214.419 35.6584 249.237 27.5858 275.215 23.651C288.182 21.6869 299.025 20.7375 307.596 24.9186C316.19 29.1111 322.412 38.4107 326.303 56.7002L326.013 56.7502L325.723 56.8015C321.842 38.5605 315.673 29.4777 307.326 25.4057C298.957 21.3227 288.309 22.2258 275.313 24.1942C249.365 28.1246 214.358 36.2404 170.691 16.3129C153.538 8.48452 142.417 -0.581159 135.714 -10.2641C129.01 -19.9493 126.739 -30.2328 127.252 -40.4725C127.865 -52.6942 132.444 -64.8589 138.177 -75.8894C138.32 -76.5879 138.472 -77.2855 138.635 -77.9816C138.629 -78.3092 138.625 -78.6368 138.625 -78.9645C129.726 -64.8616 120.728 -47.5242 119.855 -30.1056C119.347 -19.9633 121.594 -9.79702 128.221 -0.222533C134.85 9.35433 145.876 18.3605 162.959 26.1565C206.429 45.9946 241.247 37.9227 267.225 33.9879C280.193 32.0237 291.036 31.0737 299.607 35.2549C308.201 39.4473 314.423 48.7469 318.314 67.0365L318.024 67.0864L317.733 67.1377C313.853 48.8968 307.683 39.8139 299.337 35.742C290.968 31.6589 280.32 32.562 267.324 34.5304C241.376 38.4608 206.368 46.5766 162.702 26.6491C145.549 18.8207 134.427 9.7557 127.725 0.0727959C121.021 -9.61251 118.75 -19.8965 119.263 -30.1363C120.16 -48.0303 129.558 -65.8031 138.637 -80.0712C138.648 -80.6329 138.667 -81.1946 138.695 -81.7561C138.786 -83.5735 138.966 -85.3897 139.223 -87.201C138.627 -90.826 138.455 -94.4742 138.638 -98.117C138.662 -98.5988 138.693 -99.0805 138.73 -99.5621C137.424 -104.311 136.919 -109.122 137.043 -113.93C134.783 -120.21 134.016 -126.631 134.336 -133.034C135.362 -153.495 147.502 -173.798 157.571 -188.883L157.822 -188.735ZM122.01 -70.014L122.261 -69.8675C112.19 -54.7789 100.134 -34.585 99.1168 -14.2817C98.6087 -4.13956 100.855 6.02627 107.483 15.6006C114.112 25.1775 125.137 34.1836 142.22 41.9796C185.691 61.8179 220.509 53.7452 246.487 49.8104C259.455 47.8463 270.297 46.8982 278.868 51.0793C287.462 55.2718 293.684 64.5701 297.575 82.8596L297.284 82.9102L296.995 82.9608C293.115 64.7201 286.945 55.6384 278.598 51.5664C270.229 47.4834 259.582 48.3859 246.586 50.3543C220.638 54.2847 185.631 62.4006 141.964 42.4729C124.81 34.6446 113.689 25.5796 106.987 15.8967C100.282 6.2113 98.012 -4.07262 98.5251 -14.3124C99.5504 -34.7733 111.691 -55.0756 121.76 -70.1611L122.01 -70.014ZM110.108 -63.8394L110.36 -63.6922C100.289 -48.6036 88.2325 -28.4104 87.215 -8.10711C86.7068 2.03519 88.9534 12.202 95.5807 21.7765C102.21 31.3533 113.236 40.3583 130.318 48.1542C173.789 67.9925 208.607 59.9198 234.586 55.985C247.553 54.0209 258.396 53.0728 266.966 57.2539C275.56 61.4463 281.783 70.7449 285.673 89.0342L285.382 89.0848L285.092 89.1361C281.212 70.8952 275.043 61.813 266.696 57.741C258.327 53.658 247.68 54.5605 234.685 56.5289C208.736 60.4593 173.729 68.5752 130.062 48.6475C112.909 40.8192 101.787 31.7542 95.0847 22.0712C88.3806 12.3859 86.1102 2.10195 86.6233 -8.13783C87.6487 -28.5984 99.7882 -48.9005 109.857 -63.9858L110.108 -63.8394ZM97.6815 -58.308L97.9327 -58.1615C87.8614 -43.0729 75.8049 -22.8797 74.7874 -2.5764C74.2792 7.5659 76.5257 17.7328 83.1531 27.3072C89.7822 36.8841 100.809 45.8896 117.891 53.6856C161.362 73.5236 196.181 65.4512 222.159 61.5164C235.126 59.5524 245.968 58.6036 254.539 62.7846C263.132 66.9771 269.356 76.276 273.246 94.5656L272.955 94.6162L272.665 94.6675C268.785 76.4265 262.615 67.3437 254.269 63.2717C245.899 59.1887 235.253 60.0912 222.257 62.0596C196.308 65.99 161.301 74.1059 117.635 54.1782C100.481 46.3499 89.3596 37.2849 82.6571 27.6019C75.9531 17.9166 73.6825 7.63261 74.1956 -2.60713C75.2211 -23.0677 87.3605 -43.3699 97.4297 -58.4551L97.6815 -58.308ZM85.0013 -53.0932L85.2532 -52.9474C75.1818 -37.8587 63.1252 -17.6643 62.1078 2.63908C61.5997 12.7812 63.8464 22.9471 70.4736 32.5214C77.1027 42.0983 88.1283 51.1044 105.211 58.9004C148.682 78.7386 183.5 70.666 209.478 66.7312C222.446 64.7671 233.289 63.8183 241.86 67.9995C250.454 72.192 256.675 81.491 260.566 99.7804L260.276 99.8303L259.986 99.8816C256.106 81.641 249.936 72.5586 241.59 68.4866C233.221 64.4036 222.574 65.3061 209.578 67.2745C183.63 71.2048 148.622 79.3214 104.955 59.3937C87.8014 51.5653 76.6808 42.4998 69.9783 32.8168C63.2741 23.1315 61.003 12.8481 61.516 2.60836C62.5413 -17.8524 74.6816 -38.1549 84.7508 -53.2403L85.0013 -53.0932ZM72.5335 -47.786C62.4621 -32.6973 50.4063 -12.5035 49.3889 7.79985C48.8807 17.9421 51.1267 28.1084 57.7539 37.6828C64.383 47.2597 75.4093 56.2651 92.4923 64.0611C135.963 83.8995 170.781 75.8267 196.759 71.8919C209.727 69.9279 220.569 68.9797 229.14 73.1609C237.734 77.3533 243.956 86.6518 247.847 104.941L247.556 104.992L247.266 105.043C243.386 86.8022 237.217 77.72 228.87 73.648C220.501 69.565 209.854 70.4675 196.858 72.4358C170.91 76.3662 135.903 84.4821 92.2363 64.5545C75.0824 56.7261 63.9611 47.6612 57.2586 37.9782C50.5544 28.2928 48.284 18.009 48.7971 7.76912C49.8225 -12.6915 61.962 -32.9935 72.0311 -48.0789L72.5335 -47.786ZM59.6748 -42.626L59.926 -42.4796C49.8546 -27.391 37.7982 -7.19766 36.7806 13.1055C36.2724 23.2478 38.519 33.4147 45.1463 42.9892C51.7755 52.5661 62.8018 61.5715 79.8847 69.3676C123.355 89.2057 158.174 81.1331 184.152 77.1983C197.119 75.2343 207.962 74.2861 216.533 78.4673C225.126 82.6598 231.349 91.9583 235.239 110.248L234.949 110.298L234.658 110.349C230.778 92.1085 224.608 83.0256 216.262 78.9537C207.893 74.8708 197.246 75.7739 184.251 77.7423C158.302 81.6726 123.295 89.7883 79.6287 69.8609C62.4751 62.0326 51.3536 52.9675 44.651 43.2846C37.9468 33.5992 35.6765 23.3153 36.1895 13.0755C37.2148 -7.38523 49.3537 -27.6878 59.4229 -42.7732L59.6748 -42.626ZM47.298 -37.0312L47.5492 -36.8847C37.4778 -21.796 25.422 -1.60227 24.4045 18.7011C23.8963 28.8433 26.1423 39.0096 32.7696 48.584C39.3987 58.161 50.425 67.1664 67.5079 74.9624C110.979 94.8007 145.797 86.728 171.775 82.7932C184.742 80.8291 195.585 79.8809 204.156 84.0621C212.75 88.2546 218.972 97.553 222.863 115.842L222.572 115.893L222.282 115.944C218.402 97.7035 212.232 88.6213 203.886 84.5493C195.516 80.4662 184.87 81.3687 171.874 83.3371C145.926 87.2675 110.918 95.3834 67.252 75.4558C50.0982 67.6274 38.9768 58.5624 32.2742 48.8795C25.5701 39.1941 23.2997 28.9102 23.8128 18.6704C24.8381 -1.79047 36.9783 -22.0928 47.0476 -37.1783L47.298 -37.0312ZM35.2378 -31.0481L35.4904 -30.9015C25.419 -15.8128 13.3617 4.38085 12.3443 24.6842C11.8362 34.8265 14.0835 44.9928 20.7108 54.5673C27.3399 64.144 38.3652 73.1496 55.4477 80.9455C98.9181 100.784 133.737 92.7111 159.715 88.7763C172.682 86.8122 183.526 85.8635 192.096 90.0446C200.69 94.2371 206.912 103.536 210.802 121.826L210.512 121.875L210.222 121.927C206.342 103.686 200.173 94.6037 191.827 90.5318C183.457 86.4488 172.81 87.3512 159.815 89.3196C133.866 93.25 98.8582 101.367 55.1917 81.4389C38.0381 73.6105 26.9173 64.5449 20.2148 54.862C13.5107 45.1767 11.2395 34.8932 11.7526 24.6535C12.7779 4.1927 24.9181 -16.1097 34.9873 -31.1951L35.2378 -31.0481ZM23.5549 -24.6119L23.8068 -24.4647C13.7354 -9.37607 1.6789 10.8172 0.661456 31.1204C0.153256 41.2627 2.40057 51.4289 9.02793 61.0034C15.6571 70.5803 26.6827 79.5864 43.7655 87.3824C87.236 107.22 122.055 99.148 148.033 95.2132C161 93.2491 171.842 92.3004 180.413 96.4814C189.007 100.674 195.229 109.972 199.12 128.262L198.829 128.312L198.539 128.363C194.659 110.122 188.489 101.04 180.143 96.9685C171.773 92.8856 161.127 93.788 148.131 95.7564C122.183 99.6868 87.1752 107.803 43.5089 87.875C26.3552 80.0467 15.2337 70.9817 8.53116 61.2988C1.82707 51.6134 -0.443377 41.3295 0.0697079 31.0897C1.09506 10.6289 13.2353 -9.67356 23.3045 -24.759L23.5549 -24.6119ZM140.44 -81.8011C140.326 -81.6259 140.212 -81.4507 140.098 -81.2744C139.783 -80.1597 139.492 -79.0409 139.228 -77.9187C139.228 -77.9033 139.228 -77.8879 139.228 -77.8725C139.41 -78.2093 139.591 -78.5453 139.774 -78.8797C140.072 -79.5816 140.376 -80.2806 140.687 -80.976C140.602 -81.2508 140.52 -81.5259 140.44 -81.8011ZM142.681 -85.2107C142.082 -84.3104 141.476 -83.3926 140.866 -82.4578C140.928 -82.2354 140.99 -82.013 141.055 -81.791C141.58 -82.9412 142.125 -84.0806 142.681 -85.2107ZM139.577 -85.2952C139.444 -84.1064 139.346 -82.9159 139.286 -81.7254C139.275 -81.4971 139.266 -81.2687 139.257 -81.0403C139.354 -81.1911 139.45 -81.342 139.547 -81.492C139.711 -82.0687 139.88 -82.6444 140.057 -83.2187C139.88 -83.9097 139.721 -84.6019 139.577 -85.2952ZM144.257 -87.0461C143.82 -86.1938 143.39 -85.3353 142.969 -84.4707C143.442 -85.2654 143.916 -86.0518 144.392 -86.8293C144.347 -86.9014 144.302 -86.9739 144.257 -87.0461ZM142.848 -89.4445C142.052 -87.3933 141.323 -85.3199 140.676 -83.2297C141.289 -84.166 141.897 -85.0848 142.498 -85.9849L142.749 -85.8371L142.935 -85.7283C143.252 -86.3655 143.572 -86.9998 143.897 -87.6299C143.531 -88.2327 143.182 -88.8377 142.848 -89.4445ZM148.897 -95.4663C147.41 -92.9356 145.952 -90.3255 144.565 -87.6493C144.62 -87.5597 144.675 -87.4698 144.73 -87.3804C146.33 -89.9765 147.937 -92.4718 149.507 -94.8465C149.301 -95.0523 149.098 -95.2597 148.897 -95.4663ZM140.97 -93.2457C140.497 -91.2404 140.11 -89.2243 139.82 -87.2027C139.981 -86.2346 140.174 -85.2685 140.398 -84.3046C141.027 -86.2619 141.726 -88.2035 142.482 -90.1244C141.934 -91.16 141.429 -92.2002 140.97 -93.2457ZM146.577 -97.9819C145.338 -95.4187 144.176 -92.8042 143.125 -90.1508C143.469 -89.5088 143.83 -88.869 144.211 -88.2314C145.58 -90.8579 147.014 -93.4198 148.475 -95.902C147.816 -96.591 147.184 -97.2847 146.577 -97.9819ZM143.509 -101.826C142.621 -99.307 141.842 -96.759 141.201 -94.192C141.671 -93.0669 142.191 -91.9467 142.764 -90.833C143.804 -93.4192 144.948 -95.9663 146.161 -98.4635C145.213 -99.5749 144.331 -100.696 143.509 -101.826ZM139.221 -97.8973C139.085 -94.9884 139.178 -92.0782 139.535 -89.1806C139.824 -90.8448 140.174 -92.5042 140.583 -94.1554C140.069 -95.3969 139.617 -96.6447 139.221 -97.8973ZM140.31 -106.802C139.846 -104.412 139.512 -102.01 139.327 -99.6046C139.744 -98.1008 140.242 -96.6039 140.827 -95.1155C141.467 -97.5691 142.231 -100.004 143.091 -102.41C142.993 -102.549 142.894 -102.687 142.798 -102.825C141.888 -104.14 141.061 -105.467 140.31 -106.802ZM137.616 -112.427C137.622 -108.709 138.021 -104.995 138.888 -101.316C139.11 -103.419 139.441 -105.517 139.868 -107.606C139.011 -109.201 138.263 -110.809 137.616 -112.427Z" fill="url(#paint0_linear_344_250)"/>
<defs>
<linearGradient id="paint0_linear_344_250" x1="61.998" y1="-109.933" x2="253.145" y2="121.461" gradientUnits="userSpaceOnUse">
<stop stop-color="#72A8DB"/>
<stop offset="1"/>
</linearGradient>
</defs>
</svg>
